<svg width="54" height="40" viewBox="0 0 54 40" fill="none" xmlns="http://www.w3.org/2000/svg">
<g clip-path="url(#clip0_26_11)">
<path fill-rule="evenodd" clip-rule="evenodd" d="M26.1001 0C28.1051 0 29.0001 0.895 29.0001 2V37.1C29.0001 39.105 28.1051 40 26.1001 40C25.8951 40 24.1001 39.105 24.1001 37.1V2C24.1001 0.895 25.8951 0 26.1001 0Z" fill="white"/>
<path fill-rule="evenodd" clip-rule="evenodd" d="M0 0H9.1C15.523 0 19.1 4.477 19.1 9.1V20H9.1C4.477 20 0 15.523 0 9.1V0Z" fill="#23B8BC"/>
<path fill-rule="evenodd" clip-rule="evenodd" d="M43.1001 5H53.1001V14.1C53.1001 20.523 49.5231 25 43.1001 25H33.1001V14.1C33.1001 9.477 38.4771 5 43.1001 5Z" fill="#A1E1E1"/>
</g>
<defs>
<clipPath id="clip0_26_11">
<rect width="54" height="40" fill="white"/>
</clipPath>
</defs>
</svg>
