<svg width="74" height="144" viewBox="0 0 74 144" fill="none" xmlns="http://www.w3.org/2000/svg">
<g clip-path="url(#clip0_11_19)">
<path fill-rule="evenodd" clip-rule="evenodd" d="M70.3851 93.9461C67.7681 94.9161 64.8611 93.5821 63.8911 90.9651L53.7801 63.7031V100.361C53.7801 100.896 53.7231 101.418 53.6141 101.925C53.7211 102.454 53.7801 103.015 53.7801 103.596V138.232C53.7801 141.403 52.0591 143.973 49.9361 143.973H43.1251C41.0021 143.973 39.2811 141.403 39.2811 138.232V108.398H35.3271V138.232C35.3271 141.403 33.6061 143.973 31.4831 143.973H24.6721C22.5491 143.973 20.8281 141.403 20.8281 138.232V103.596C20.8281 103.015 20.8861 102.454 20.9941 101.925C20.8861 101.418 20.8281 100.896 20.8281 100.361V63.0901L9.83908 92.7241C8.86808 95.3391 5.96108 96.6731 3.34408 95.7031C0.728075 94.7341 -0.606925 91.8251 0.364075 89.2101L20.8331 43.9081C21.1731 42.9881 21.7571 42.2321 22.4791 41.6741C24.0661 39.6521 26.6471 38.3361 29.5641 38.3361H45.0441C46.1361 38.3361 47.1801 38.5221 48.1441 38.8601C50.2021 38.8541 52.1391 40.1081 52.8961 42.1501L73.3661 87.4521C74.3361 90.0691 73.0011 92.9761 70.3851 93.9461ZM36.2061 35.9961C26.4991 35.9961 18.6311 28.1281 18.6311 18.4241C18.6311 8.71807 26.4991 0.851074 36.2061 0.851074C45.9121 0.851074 53.7801 8.71807 53.7801 18.4241C53.7801 28.1281 45.9121 35.9961 36.2061 35.9961Z" fill="#25B8BE"/>
</g>
<g clip-path="url(#clip1_11_19)">
<path fill-rule="evenodd" clip-rule="evenodd" d="M70.338 94.095C67.721 95.065 64.814 93.731 63.844 91.114L53.733 63.852V100.51C53.733 101.045 53.676 101.567 53.567 102.074C53.674 102.603 53.733 103.164 53.733 103.745V138.381C53.733 141.552 52.012 144.122 49.889 144.122H43.078C40.955 144.122 39.234 141.552 39.234 138.381V108.547H35.28V138.381C35.28 141.552 33.559 144.122 31.436 144.122H24.625C22.502 144.122 20.781 141.552 20.781 138.381V103.745C20.781 103.164 20.839 102.603 20.947 102.074C20.839 101.567 20.781 101.045 20.781 100.51V63.239L9.79196 92.873C8.82096 95.488 5.91396 96.822 3.29696 95.852C0.680956 94.883 -0.654044 91.974 0.316956 89.359L20.786 44.057C21.126 43.137 21.71 42.381 22.432 41.823C24.019 39.801 26.6 38.485 29.517 38.485H44.997C46.089 38.485 47.133 38.671 48.097 39.009C50.155 39.003 52.092 40.257 52.849 42.299L73.319 87.601C74.289 90.218 72.954 93.125 70.338 94.095ZM36.159 36.145C26.452 36.145 18.584 28.277 18.584 18.573C18.584 8.867 26.452 1 36.159 1C45.865 1 53.733 8.867 53.733 18.573C53.733 28.277 45.865 36.145 36.159 36.145Z" fill="#A5E2E5"/>
</g>
<defs>
<clipPath id="clip0_11_19">
<rect width="74" height="144" fill="white"/>
</clipPath>
<clipPath id="clip1_11_19">
<rect width="74" height="56" fill="white" transform="translate(0 1)"/>
</clipPath>
</defs>
</svg>
