<svg width="74" height="144" viewBox="0 0 74 144" fill="none" xmlns="http://www.w3.org/2000/svg">
<g clip-path="url(#clip0_11_25)">
<path fill-rule="evenodd" clip-rule="evenodd" d="M36.145 35.16C39.6207 35.1596 43.0183 34.1285 45.9081 32.1973C48.7979 30.2661 51.0503 27.5215 52.3803 24.3104C53.7104 21.0992 54.0584 17.5658 53.3804 14.1568C52.7025 10.7479 51.029 7.61666 48.5715 5.15876C46.114 2.70085 42.9829 1.02675 39.574 0.348211C36.1652 -0.330327 32.6317 0.0169998 29.4203 1.3465C26.209 2.676 23.4639 4.92796 21.5322 7.81745C19.6005 10.7069 18.569 14.1042 18.568 17.5799C18.5677 19.8884 19.0222 22.1744 19.9054 24.3072C20.7886 26.44 22.0833 28.3779 23.7155 30.0103C25.3476 31.6428 27.2854 32.9378 29.418 33.8214C31.5507 34.7049 33.8366 35.1598 36.145 35.16ZM73.311 86.6099L52.838 41.3099C52.4784 40.3407 51.8298 39.5055 50.9799 38.9171C50.1299 38.3286 49.1197 38.0156 48.086 38.0201C47.0896 37.6724 46.0414 37.4965 44.986 37.5001H29.503C28.147 37.4836 26.8049 37.7746 25.5776 38.3514C24.3503 38.9281 23.2697 39.7755 22.417 40.8299C21.6686 41.4071 21.0978 42.1834 20.77 43.0699L0.296996 88.3699C-0.16328 89.6109 -0.118152 90.9829 0.422667 92.191C0.963487 93.399 1.95683 94.3466 3.18902 94.8299C4.47547 95.3018 5.89666 95.2437 7.14014 94.668C8.38361 94.0923 9.34756 93.0463 9.82001 91.7601L20.765 62.2501V72.23L20.583 72.5499L11.33 106.21C11.2333 106.562 11.2192 106.932 11.289 107.291C11.3588 107.649 11.5104 107.987 11.7322 108.278C11.9539 108.568 12.2398 108.803 12.5674 108.965C12.8951 109.127 13.2557 109.211 13.621 109.21H20.765V137.39C20.765 140.56 22.486 143.13 24.61 143.13H31.421C33.545 143.13 35.266 140.56 35.266 137.39V109.21H39.221V137.39C39.221 140.56 40.942 143.13 43.066 143.13H49.877C52.001 143.13 53.722 140.56 53.722 137.39V109.21H60.122C60.4859 109.211 60.845 109.128 61.1718 108.968C61.4986 108.808 61.7842 108.575 62.0065 108.287C62.2288 107.999 62.3819 107.664 62.454 107.307C62.526 106.95 62.5151 106.582 62.422 106.23L53.722 73.5599V62.8599L63.834 90.13C64.0651 90.7523 64.4166 91.3231 64.8683 91.8096C65.32 92.2962 65.8631 92.6888 66.4666 92.9654C67.07 93.242 67.7221 93.3971 68.3855 93.4217C69.0489 93.4463 69.7107 93.3401 70.333 93.109C70.9553 92.8778 71.5261 92.5265 72.0126 92.0748C72.4991 91.6231 72.8919 91.0799 73.1685 90.4764C73.4451 89.8729 73.6002 89.2209 73.6248 88.5574C73.6494 87.894 73.5422 87.2323 73.311 86.6099Z" fill="#25B8BE"/>
</g>
<g clip-path="url(#clip1_11_25)">
<g clip-path="url(#clip2_11_25)">
<path fill-rule="evenodd" clip-rule="evenodd" d="M36.145 35.16C39.6207 35.1596 43.0183 34.1285 45.9081 32.1973C48.7979 30.2661 51.0503 27.5215 52.3803 24.3104C53.7104 21.0992 54.0584 17.5658 53.3804 14.1568C52.7025 10.7479 51.029 7.61666 48.5715 5.15876C46.114 2.70085 42.9829 1.02675 39.574 0.348211C36.1652 -0.330327 32.6317 0.0169998 29.4203 1.3465C26.209 2.676 23.4639 4.92796 21.5322 7.81745C19.6005 10.7069 18.569 14.1042 18.568 17.5799C18.5677 19.8884 19.0222 22.1744 19.9054 24.3072C20.7886 26.44 22.0833 28.3779 23.7155 30.0103C25.3476 31.6428 27.2854 32.9378 29.418 33.8214C31.5507 34.7049 33.8366 35.1598 36.145 35.16ZM73.311 86.6099L52.838 41.3099C52.4784 40.3407 51.8298 39.5055 50.9799 38.9171C50.1299 38.3286 49.1197 38.0156 48.086 38.0201C47.0896 37.6724 46.0414 37.4965 44.986 37.5001H29.503C28.147 37.4836 26.8049 37.7746 25.5776 38.3514C24.3503 38.9281 23.2697 39.7755 22.417 40.8299C21.6686 41.4071 21.0978 42.1834 20.77 43.0699L0.296996 88.3699C-0.16328 89.6109 -0.118152 90.9829 0.422667 92.191C0.963487 93.399 1.95683 94.3466 3.18902 94.8299C4.47547 95.3018 5.89666 95.2437 7.14014 94.668C8.38361 94.0923 9.34756 93.0463 9.82001 91.7601L20.765 62.2501V72.23L20.583 72.5499L11.33 106.21C11.2333 106.562 11.2192 106.932 11.289 107.291C11.3588 107.649 11.5104 107.987 11.7322 108.278C11.9539 108.568 12.2398 108.803 12.5674 108.965C12.8951 109.127 13.2557 109.211 13.621 109.21H20.765V137.39C20.765 140.56 22.486 143.13 24.61 143.13H31.421C33.545 143.13 35.266 140.56 35.266 137.39V109.21H39.221V137.39C39.221 140.56 40.942 143.13 43.066 143.13H49.877C52.001 143.13 53.722 140.56 53.722 137.39V109.21H60.122C60.4859 109.211 60.845 109.128 61.1718 108.968C61.4986 108.808 61.7842 108.575 62.0065 108.287C62.2288 107.999 62.3819 107.664 62.454 107.307C62.526 106.95 62.5151 106.582 62.422 106.23L53.722 73.5599V62.8599L63.834 90.13C64.0651 90.7523 64.4166 91.3231 64.8683 91.8096C65.32 92.2962 65.8631 92.6888 66.4666 92.9654C67.07 93.242 67.7221 93.3971 68.3855 93.4217C69.0489 93.4463 69.7107 93.3401 70.333 93.109C70.9553 92.8778 71.5261 92.5265 72.0126 92.0748C72.4991 91.6231 72.8919 91.0799 73.1685 90.4764C73.4451 89.8729 73.6002 89.2209 73.6248 88.5574C73.6494 87.894 73.5422 87.2323 73.311 86.6099Z" fill="#A5E2E5"/>
</g>
</g>
<defs>
<clipPath id="clip0_11_25">
<rect width="73.624" height="143.13" fill="white"/>
</clipPath>
<clipPath id="clip1_11_25">
<rect width="74" height="83" fill="white"/>
</clipPath>
<clipPath id="clip2_11_25">
<rect width="73.624" height="143.13" fill="white"/>
</clipPath>
</defs>
</svg>
